<svg width="32" height="54" viewBox="0 0 32 54" fill="none" xmlns="http://www.w3.org/2000/svg">
<path id="LOGO" d="M29.8957 28.0992C30.2006 27.7429 30.8321 26.9963 31.3206 25.9337C32.1513 24.1275 32.0331 22.5723 31.9211 20.2891C31.8464 18.74 31.7499 16.3917 31.7033 13.3433C28.8285 14.6382 25.7951 15.9146 22.6092 17.1507C17.4975 19.1366 12.588 20.7816 7.94915 22.151C9.3772 21.5562 11.2346 20.7724 13.4 19.8398C15.2076 19.0622 17.7806 17.8044 21.234 16.3948C22.7616 15.7721 24.9488 14.821 27.556 13.4765C27.5716 11.4534 27.5871 9.43043 27.6027 7.41051C19.9491 12.07 12.2955 16.7325 4.64194 21.392C4.45837 21.3703 4.27481 21.3455 4.09124 21.3238C6.08864 19.8584 8.18249 18.3869 10.379 16.9215C14.3738 14.2541 18.2722 11.8841 22.015 9.78361C21.9247 7.38263 21.8314 4.97855 21.7412 2.57757C12.9364 9.91372 2.76275 18.3001 2.52319 18.0244C2.42674 17.9129 3.78324 16.2771 5.01839 15.0069C5.04328 14.9821 5.13039 14.8923 5.2424 14.7807C5.97664 14.0465 7.67536 12.4262 11.7511 9.14542C13.0142 8.12926 14.2525 7.15647 15.4627 6.22706C15.1734 4.15137 14.884 2.07569 14.5916 0C11.7075 2.40098 8.34428 5.65392 5.11795 9.92302C3.04588 12.6648 1.41871 15.3136 0.136894 17.6991C0.090226 28.8056 0.0466682 39.9151 0 51.0216C0.211563 51.539 0.780917 52.7131 2.0534 53.4257C3.02099 53.9678 3.92947 53.9833 4.98106 53.9988C5.80864 54.0112 7.09046 53.9338 8.60873 53.4133C16.2592 50.9813 23.9097 48.5494 31.5602 46.1174C31.5228 42.7529 31.4886 39.3854 31.4513 36.0178C31.4295 35.6243 31.2926 33.7903 29.7494 32.3404C28.3214 30.9959 26.6382 30.8782 26.212 30.8596C27.1173 30.4413 28.5796 29.6234 29.8894 28.0961L29.8957 28.0992ZM8.08916 27.0738C8.91674 26.8166 11.0386 26.1536 13.8138 25.2955C19.442 23.5544 22.2794 22.7055 23.5021 23.8766C24.0155 24.3692 24.1524 25.0476 24.1648 25.1127C24.4355 26.544 23.1661 27.8514 22.7212 28.3068C21.0256 30.0324 19.0624 30.3546 14.6352 31.2933C13.1542 31.6093 10.7897 32.1236 7.80915 32.8206C7.89937 30.906 7.99271 28.9883 8.08294 27.0738H8.08916ZM22.8861 41.5323C17.9548 43.0751 13.0204 44.618 8.08916 46.1608L8.11094 39.6828C9.98078 39.1282 11.471 38.6604 12.4169 38.3599C12.4169 38.3599 15.5281 37.3685 21.122 36.2625C21.8438 36.12 22.9265 35.9218 23.779 36.5259C24.6999 37.1796 24.7808 38.3723 24.787 38.521C24.8493 39.7169 24.1026 40.8879 22.8861 41.5323Z" fill="white"/>
</svg>
